<svg xmlns="http://www.w3.org/2000/svg" viewBox="0 0 800 600" width="800" height="600"><rect width="800" height="600" fill="#f0f4f8"/><g transform="translate(400 300)"><g transform="translate(-150 -100)"><path d="M-120 80h240v120h-240z" fill="#ffffff" stroke="#cbd5e1" stroke-width="4"/><rect x="-110" y="90" width="220" height="15" fill="#e2e8f0" rx="5"/><rect x="-110" y="115" width="180" height="10" fill="#e2e8f0" rx="5"/><rect x="-110" y="135" width="200" height="10" fill="#e2e8f0" rx="5"/><circle cx="-90" cy="50" r="25" fill="#a7f3d0"/><path d="M-90 25a25 25 0 0125 25v10h-50v-10a25 25 0 0125-25z" fill="#34d399"/><circle cx="0" cy="50" r="25" fill="#bfdbfe"/><path d="M0 25a25 25 0 0125 25v10h-50v-10a25 25 0 0125-25z" fill="#60a5fa"/><circle cx="90" cy="50" r="25" fill="#fde68a"/><path d="M90 25a25 25 0 0125 25v10h-50v-10a25 25 0 0125-25z" fill="#facc15"/></g><g transform="translate(150 50)"><rect x="-100" y="-80" width="200" height="160" fill="#ffffff" stroke="#cbd5e1" stroke-width="4" rx="10"/><path d="M-80-60h160M-80-30h160M-80 0h100M-80 30h160M-80 60h120" stroke="#e2e8f0" stroke-width="10" stroke-linecap="round"/><circle cx="-60" cy="-60" r="8" fill="#60a5fa"/><circle cx="-60" cy="-30" r="8" fill="#34d399"/><circle cx="-60" cy="0" r="8" fill="#a7f3d0"/><circle cx="-60" cy="30" r="8" fill="#60a5fa"/><circle cx="-60" cy="60" r="8" fill="#e2e8f0"/></g><text x="-250" y="250" font-family="sans-serif" font-size="32" fill="#475569" font-weight="bold">Collaborate and Build Together</text></g></svg>
